<svg width="1730" height="1453" viewBox="0 0 1730 1453" fill="none" xmlns="http://www.w3.org/2000/svg">
<path d="M919.917 1231.63C809.993 1275.14 685.184 1221.11 641.675 1111.19C598.166 1001.26 652.19 876.453 762.114 832.944C809.944 814.013 862.979 812.904 911.493 829.804C929.466 836.085 938.983 855.724 932.715 873.728C926.446 891.731 906.795 901.219 888.792 894.95C855.894 883.484 819.953 884.245 787.504 897.089C712.954 926.597 676.312 1011.25 705.82 1085.8C735.327 1160.35 819.979 1196.99 894.528 1167.48C926.163 1154.96 952.537 1131.61 968.732 1101.76C977.833 1085.01 998.755 1078.82 1015.51 1087.92C1032.26 1097.02 1038.45 1117.95 1029.35 1134.7C1005.44 1178.73 966.571 1213.16 919.917 1231.63Z" fill="url(#paint0_linear_2174_732)"/>
<path d="M1021.31 534.141C970.673 554.183 915.19 554.307 864.255 534.284C810.938 513.355 768.984 472.928 746.088 420.458C725.51 373.315 722.575 320.34 737.804 271.302C743.447 253.128 762.781 242.929 780.955 248.572C799.13 254.215 809.329 273.549 803.686 291.723C793.369 324.968 795.353 360.914 809.331 392.88C840.697 464.809 923.642 498.639 996.05 469.979C997.619 469.358 999.175 468.707 1000.72 468.026C1036.33 452.501 1063.74 424.034 1077.94 387.894C1092.13 351.754 1091.38 312.217 1075.87 276.638C1062.26 245.433 1038.02 219.899 1007.63 204.72C990.596 196.22 983.678 175.482 992.178 158.444C1000.71 141.394 1021.42 134.489 1038.45 142.988C1083.27 165.363 1119.01 203.051 1139.09 248.999C1161.99 301.499 1163.07 359.744 1142.14 413.061C1121.21 466.378 1080.79 508.331 1028.32 531.227C1025.97 532.261 1023.63 533.222 1021.31 534.141Z" fill="url(#paint1_linear_2174_732)"/>
<path d="M448.888 1094.01C417.765 1106.33 383.301 1111.53 347.756 1107.74C290.814 1101.71 239.612 1073.87 203.636 1029.34C167.629 984.813 151.13 928.939 157.148 871.967C162.573 820.81 186.186 773.303 223.672 738.198C237.572 725.197 259.396 725.872 272.428 739.76C285.459 753.648 284.754 775.484 270.866 788.515C245.472 812.31 229.449 844.535 225.776 879.231C221.674 917.865 232.878 955.777 257.318 985.974C281.727 1016.18 316.441 1035.06 355.075 1039.16C434.799 1047.58 506.554 989.598 515.004 909.861C518.589 876.002 510.13 841.852 491.224 813.651C480.603 797.832 484.854 776.406 500.642 765.797C516.442 755.218 537.886 759.427 548.496 775.215C576.412 816.838 588.86 867.234 583.56 917.12C574.837 999.162 520.723 1065.58 448.888 1094.01Z" fill="url(#paint2_linear_2174_732)"/>
<path d="M1405.34 675.286C1392.68 680.299 1379.38 684.166 1365.47 686.742C1314.91 696.117 1262.64 687.014 1218.28 661.112C1201.82 651.512 1196.28 630.4 1205.88 613.938C1215.5 597.507 1236.63 591.934 1253.06 601.545C1283.14 619.114 1318.58 625.283 1352.85 618.903C1431.69 604.269 1483.91 528.239 1469.28 449.407C1462.19 411.226 1440.66 378.065 1408.66 356.092C1376.65 334.089 1337.99 325.879 1299.78 332.98C1266.32 339.213 1235.98 357.016 1214.32 383.203C1202.2 397.873 1180.45 399.957 1165.77 387.804C1151.09 375.651 1149.05 353.925 1161.17 339.255C1193.11 300.625 1237.85 274.335 1287.18 265.171C1343.49 254.709 1400.5 266.816 1447.69 299.239C1494.88 331.662 1526.64 380.52 1537.1 436.829C1556.12 539.178 1498.67 638.312 1405.34 675.286Z" fill="url(#paint3_linear_2174_732)"/>
<path d="M1265.65 927.275C1241.89 936.681 1216.39 941.786 1190.09 942.221C1132.83 943.153 1078.65 921.726 1037.49 881.893C952.584 799.657 950.39 663.683 1032.61 578.745C1068.4 541.803 1116.28 518.945 1167.42 514.366C1186.39 512.682 1203.15 526.661 1204.84 545.633C1206.52 564.605 1192.54 581.371 1173.57 583.055C1138.88 586.182 1106.43 601.676 1082.16 626.733C1026.4 684.315 1027.9 776.578 1085.48 832.341C1113.37 859.358 1150.14 873.898 1188.96 873.286C1227.82 872.661 1264.05 856.958 1291.09 829.025C1314.76 804.586 1329.15 772.452 1331.64 738.57C1333.02 719.573 1349.55 705.286 1368.56 706.692C1387.55 708.068 1401.81 724.61 1400.44 743.607C1396.77 793.578 1375.55 840.943 1340.64 877.014C1319.12 899.239 1293.61 916.209 1265.65 927.275Z" fill="url(#paint4_linear_2174_732)"/>
<path d="M657.549 843.358C655.499 844.17 653.406 844.963 651.331 845.715C633.414 852.178 613.65 842.874 607.186 824.957C600.722 807.039 610.027 787.276 627.944 780.812C660.751 769.048 688.167 745.778 705.297 715.382C724.344 681.542 729.111 642.297 718.634 604.899C708.187 567.489 683.78 536.407 649.929 517.331C616.089 498.285 576.843 493.517 539.445 503.995C502.036 514.441 470.954 538.848 451.878 572.7C435.189 602.362 429.39 637.063 435.57 670.476C439.037 689.196 426.667 707.208 407.948 710.675C389.228 714.143 371.217 701.773 367.749 683.054C358.61 633.79 367.154 582.584 391.777 538.863C419.892 488.981 465.711 452.985 520.876 437.604C576.029 422.192 633.877 429.189 683.789 457.291C733.702 485.394 769.637 531.237 785.049 586.39C800.461 641.543 793.464 699.391 765.391 749.291C741.242 792.093 703.117 825.322 657.549 843.358Z" fill="url(#paint5_linear_2174_732)"/>
<defs>
<linearGradient id="paint0_linear_2174_732" x1="641.681" y1="1111.19" x2="982.337" y2="976.35" gradientUnits="userSpaceOnUse">
<stop stop-color="#06B3A5"/>
<stop offset="1" stop-color="#67FFD7" stop-opacity="0"/>
</linearGradient>
<linearGradient id="paint1_linear_2174_732" x1="1028.3" y1="531.237" x2="881.785" y2="195.431" gradientUnits="userSpaceOnUse">
<stop stop-color="#06B3A5"/>
<stop offset="1" stop-color="#67FFD7" stop-opacity="0"/>
</linearGradient>
<linearGradient id="paint2_linear_2174_732" x1="347.75" y1="1107.77" x2="386.329" y2="743.442" gradientUnits="userSpaceOnUse">
<stop stop-color="#06B3A5"/>
<stop offset="1" stop-color="#67FFD7" stop-opacity="0"/>
</linearGradient>
<linearGradient id="paint3_linear_2174_732" x1="1537.14" y1="436.832" x2="1176.93" y2="503.682" gradientUnits="userSpaceOnUse">
<stop stop-color="#06B3A5"/>
<stop offset="1" stop-color="#67FFD7" stop-opacity="0"/>
</linearGradient>
<linearGradient id="paint4_linear_2174_732" x1="1037.52" y1="881.895" x2="1292.37" y2="618.684" gradientUnits="userSpaceOnUse">
<stop stop-color="#06B3A5"/>
<stop offset="1" stop-color="#67FFD7" stop-opacity="0"/>
</linearGradient>
<linearGradient id="paint5_linear_2174_732" x1="683.776" y1="457.232" x2="504.006" y2="776.474" gradientUnits="userSpaceOnUse">
<stop stop-color="#06B3A5"/>
<stop offset="1" stop-color="#67FFD7" stop-opacity="0"/>
</linearGradient>
</defs>
</svg>
