<svg width="276" height="57" viewBox="0 0 276 57" fill="none" xmlns="http://www.w3.org/2000/svg">
<path d="M79.6337 1.43533C83.057 1.43533 85.7133 2.33745 87.6027 4.14162C89.4921 5.94458 90.5415 7.99342 90.7497 10.2882H87.1791C86.7749 8.54612 85.9677 7.1656 84.7589 6.14786C83.55 5.1289 81.8542 4.62003 79.6702 4.62003C77.0078 4.62003 74.8578 5.55501 73.2192 7.42614C71.5818 9.29727 70.7625 12.1654 70.7625 16.0307C70.7625 19.1959 71.5015 21.7633 72.9806 23.7331C74.4585 25.7016 76.6645 26.6865 79.5972 26.6865C82.2961 26.6865 84.3511 25.6505 85.762 23.576C86.5107 22.484 87.0695 21.0487 87.4371 19.2701H91.0078C90.6888 22.1164 89.6333 24.5025 87.8425 26.4296C85.6951 28.7475 82.7989 29.9077 79.1552 29.9077C76.0144 29.9077 73.3763 28.9569 71.241 27.0554C68.4312 24.539 67.0264 20.6567 67.0264 15.4049C67.0264 11.4167 68.0818 8.14684 70.1916 5.59519C72.4742 2.82197 75.6212 1.43533 79.6337 1.43533Z" fill="#303030"/>
<path d="M120.437 15.6813C120.437 16.8464 120.32 18.009 120.086 19.1692C119.854 20.3281 119.497 21.4323 119.019 22.4817C118.54 23.5299 117.942 24.5062 117.224 25.4083C116.507 26.3092 115.657 27.0944 114.676 27.764C113.694 28.4323 112.587 28.9534 111.354 29.3283C110.121 29.7021 108.756 29.8895 107.259 29.8895C105.761 29.8895 104.394 29.7021 103.155 29.3283C101.915 28.9534 100.808 28.4323 99.8325 27.764C98.8573 27.0944 98.0076 26.3092 97.2832 25.4083C96.5589 24.5062 95.9587 23.5299 95.4791 22.4817C95.0006 21.4323 94.6452 20.3281 94.4126 19.1692C94.1789 18.009 94.062 16.8464 94.062 15.6813C94.062 13.5826 94.3603 11.6627 94.9556 9.92065C95.5497 8.17856 96.4116 6.68118 97.5413 5.4297C98.6698 4.17822 100.05 3.20553 101.682 2.51283C103.314 1.81892 105.173 1.47318 107.259 1.47318C109.332 1.47318 111.188 1.81892 112.826 2.51283C114.464 3.20553 115.845 4.17822 116.967 5.4297C118.09 6.68118 118.948 8.17856 119.543 9.92065C120.139 11.6627 120.437 13.5826 120.437 15.6813ZM116.828 15.6813C116.828 14.0732 116.614 12.5916 116.184 11.2366C115.755 9.88047 115.133 8.71422 114.317 7.73909C113.501 6.76396 112.498 6.0031 111.308 5.45771C110.117 4.9111 108.768 4.6384 107.259 4.6384C105.737 4.6384 104.382 4.9111 103.191 5.45771C102.001 6.0031 100.997 6.76396 100.182 7.73909C99.3662 8.71422 98.7429 9.88047 98.3144 11.2366C97.8846 12.5916 97.6704 14.0732 97.6704 15.6813C97.6704 17.3248 97.8664 18.8247 98.2584 20.1808C98.6516 21.537 99.2469 22.6996 100.044 23.6686C100.842 24.6377 101.839 25.3888 103.034 25.9233C104.231 26.4565 105.639 26.7231 107.259 26.7231C108.865 26.7231 110.27 26.4565 111.473 25.9233C112.676 25.3888 113.673 24.6377 114.464 23.6686C115.256 22.6996 115.847 21.537 116.24 20.1808C116.632 18.8247 116.828 17.3248 116.828 15.6813Z" fill="#303030"/>
<path d="M124.706 2.15363H134.387C135.454 2.15363 136.387 2.18165 137.184 2.23644C137.982 2.29122 138.73 2.41172 139.429 2.59555C140.093 2.77937 140.715 3.046 141.298 3.39539C141.881 3.746 142.392 4.18668 142.834 4.72111C143.276 5.25433 143.623 5.87399 143.874 6.58008C144.126 7.28495 144.251 8.07992 144.251 8.96374C144.251 9.43 144.19 9.93277 144.067 10.4721C143.944 11.0126 143.742 11.5434 143.46 12.0644C143.178 12.5855 142.806 13.07 142.347 13.518C141.887 13.966 141.319 14.3312 140.644 14.6136C141.197 14.7975 141.76 15.0556 142.338 15.3867C142.915 15.7178 143.439 16.1439 143.912 16.6649C144.384 17.1872 144.774 17.8191 145.08 18.5617C145.387 19.3031 145.539 20.1905 145.539 21.2204C145.539 21.8097 145.47 22.4196 145.329 23.0514C145.187 23.6832 144.96 24.2943 144.647 24.8836C144.334 25.4716 143.932 26.0303 143.442 26.5575C142.951 27.0858 142.356 27.546 141.657 27.938C140.957 28.3312 140.15 28.6404 139.237 28.8681C138.323 29.0945 137.283 29.2077 136.117 29.2077H124.706V2.15363ZM135.583 26.0425C136.761 26.0425 137.752 25.9293 138.555 25.7017C139.359 25.4752 140.01 25.1562 140.507 24.7448C141.003 24.3345 141.362 23.8403 141.583 23.2632C141.804 22.6874 141.914 22.0422 141.914 21.3312C141.914 20.619 141.804 19.975 141.583 19.3992C141.362 18.8222 141.003 18.3279 140.507 17.9176C140.01 17.5062 139.359 17.1872 138.555 16.9596C137.752 16.7331 136.761 16.6199 135.583 16.6199H128.313V26.0425H135.583ZM135.067 13.675C136.258 13.675 137.218 13.5618 137.948 13.3342C138.678 13.1077 139.243 12.8009 139.641 12.4138C140.04 12.0279 140.307 11.5702 140.442 11.043C140.577 10.5159 140.644 9.95103 140.644 9.34964C140.644 8.71173 140.549 8.14441 140.359 7.64771C140.169 7.1498 139.853 6.72982 139.411 6.38652C138.969 6.04322 138.393 5.77905 137.681 5.59522C136.97 5.4114 136.098 5.31885 135.067 5.31885H128.313V13.675H135.067Z" fill="#303030"/>
<path d="M149.846 2.15363H169.595V5.31885H153.453V13.675H168.343V16.8403H153.453V26.0425H169.852V29.2077H149.846V2.15363Z" fill="#303030"/>
<path d="M172.724 2.15363H194.735V5.31885H185.533V29.2077H181.908V5.31885H172.724V2.15363Z" fill="#303030"/>
<path d="M198.011 2.15363H201.618V13.3062H216.01V2.15363H219.637V29.2077H216.01V16.4726H201.618V29.2077H198.011V2.15363Z" fill="#303030"/>
<path d="M225.232 2.15363H228.839V24.0362H228.912L242.678 2.15363H246.856V29.2077H243.231V7.19606H243.157L229.409 29.2077H225.232V2.15363Z" fill="#303030"/>
<path d="M252.452 2.15363H256.059V15.3307L269.255 2.15363H274.298L263.034 13.0676L274.611 29.2077H269.972L260.439 15.5705L256.059 19.7851V29.2077H252.452V2.15363Z" fill="#303030"/>
<path d="M75.6021 46.2598C75.6021 45.8228 75.5522 45.4211 75.4548 45.0558C75.3562 44.6894 75.2101 44.3741 75.0154 44.1087C74.8218 43.8433 74.5807 43.6351 74.2934 43.4854C74.0061 43.3357 73.6738 43.2602 73.2952 43.2602C72.9166 43.2602 72.5842 43.3357 72.2969 43.4854C72.0096 43.6351 71.7686 43.8433 71.5738 44.1087C71.3802 44.3741 71.2341 44.6894 71.1355 45.0558C71.0369 45.4211 70.9882 45.8228 70.9882 46.2598C70.9882 46.703 71.0369 47.1096 71.1355 47.4797C71.2341 47.851 71.3802 48.1687 71.5738 48.4341C71.7686 48.6995 72.0096 48.9077 72.2969 49.0574C72.5842 49.2071 72.9166 49.2814 73.2952 49.2814C73.6738 49.2814 74.0061 49.2071 74.2934 49.0574C74.5807 48.9077 74.8218 48.6995 75.0154 48.4341C75.2101 48.1687 75.3562 47.851 75.4548 47.4797C75.5522 47.1096 75.6021 46.703 75.6021 46.2598ZM66.7432 42.3252H68.0994V45.6633H69.6247C69.6795 45.1082 69.8013 44.609 69.9936 44.1671C70.1847 43.7252 70.438 43.3491 70.7521 43.0398C71.0674 42.7306 71.4374 42.4932 71.8647 42.3289C72.2933 42.1633 72.7693 42.0817 73.2952 42.0817C73.8698 42.0817 74.3835 42.1791 74.8352 42.3727C75.2868 42.5663 75.6715 42.845 75.9893 43.209C76.3058 43.573 76.548 44.0125 76.7148 44.5287C76.8816 45.0437 76.9656 45.6219 76.9656 46.2598C76.9656 46.9087 76.8816 47.4918 76.7148 48.0104C76.548 48.529 76.3058 48.9697 75.9893 49.3337C75.6715 49.6965 75.2868 49.9753 74.8352 50.1701C74.3835 50.3637 73.8698 50.461 73.2952 50.461C72.7595 50.461 72.2738 50.3758 71.8392 50.2066C71.4046 50.0374 71.0296 49.7915 70.7155 49.4701C70.4014 49.1475 70.1507 48.7579 69.9644 48.2977C69.7769 47.8388 69.6637 47.3214 69.6247 46.7468H68.0994V50.2176H66.7432V42.3252Z" fill="#303030"/>
<path d="M78.4097 42.3251H79.7658V43.4086H79.7951C79.8839 43.226 79.9959 43.0543 80.1311 42.8924C80.2662 42.7305 80.4281 42.5893 80.6168 42.4688C80.8067 42.3483 81.0246 42.2533 81.273 42.1851C81.5213 42.1157 81.805 42.0816 82.1239 42.0816C82.5464 42.0816 82.9518 42.162 83.3401 42.3251C83.7285 42.487 84.0717 42.7305 84.3724 43.0543C84.6719 43.3782 84.9105 43.7848 85.0871 44.2741C85.2636 44.7623 85.3525 45.3321 85.3525 45.9797C85.3525 46.7905 85.2697 47.4795 85.1053 48.0468C84.941 48.6154 84.7072 49.078 84.4053 49.4359C84.1034 49.795 83.7382 50.0556 83.3109 50.2175C82.8836 50.3794 82.4064 50.4609 81.8804 50.4609C81.6211 50.4609 81.3777 50.4269 81.1512 50.3575C80.926 50.2893 80.7227 50.1992 80.5438 50.0884C80.3636 49.9776 80.2102 49.8559 80.0824 49.7208C79.9545 49.5856 79.8596 49.4542 79.7951 49.3264H79.7658V53.3279H78.4097V42.3251ZM79.7366 46.3121C79.7366 46.7394 79.778 47.1338 79.862 47.4942C79.9448 47.8557 80.0738 48.1686 80.2491 48.434C80.4232 48.6994 80.6411 48.9076 80.9041 49.0573C81.1671 49.207 81.4787 49.2813 81.8366 49.2813C82.2104 49.2813 82.533 49.207 82.8057 49.0573C83.0784 48.9076 83.3036 48.6994 83.4801 48.434C83.6566 48.1686 83.7869 47.8557 83.8709 47.4942C83.9549 47.1338 83.9963 46.7394 83.9963 46.3121C83.9963 45.8641 83.9549 45.4538 83.8709 45.0813C83.7869 44.7076 83.6566 44.3862 83.4801 44.1159C83.3036 43.8457 83.0784 43.635 82.8057 43.4853C82.533 43.3356 82.2104 43.2601 81.8366 43.2601C81.4787 43.2601 81.1671 43.3356 80.9041 43.4853C80.6411 43.635 80.4232 43.8457 80.2491 44.1159C80.0738 44.3862 79.9448 44.7076 79.862 45.0813C79.778 45.4538 79.7366 45.8641 79.7366 46.3121Z" fill="#303030"/>
<path d="M86.8779 42.3251H88.2341V48.3756H88.2633L92.1395 42.3251H93.6953V50.2175H92.3319V44.167H92.3014L88.4325 50.2175H86.8779V42.3251Z" fill="#303030"/>
<path d="M102.266 50.2175H96.164V52.1483H94.8955V49.039H95.9352C96.1506 48.5082 96.3235 47.9665 96.4514 47.4138C96.5792 46.8611 96.6766 46.3036 96.7459 45.7411C96.8141 45.1775 96.8592 44.6114 96.8787 44.0417C96.8981 43.4719 96.9079 42.8997 96.9079 42.3251H102.42V49.039H103.533V52.1483H102.266V50.2175ZM101.064 49.039V43.5036H98.2044C98.1703 43.9516 98.135 44.4105 98.0985 44.8817C98.0607 45.354 98.012 45.8263 97.9512 46.3011C97.8891 46.7747 97.8087 47.2434 97.7077 47.7048C97.6067 48.1662 97.4752 48.6105 97.3133 49.039H101.064Z" fill="#303030"/>
<path d="M104.831 42.3251H106.187V48.3756H106.216L110.092 42.3251H111.647V50.2175H110.283V44.167H110.254L106.385 50.2175H104.831V42.3251Z" fill="#303030"/>
<path d="M118.391 47.034C118.095 47.1131 117.772 47.1789 117.42 47.2324C117.07 47.2872 116.742 47.314 116.437 47.314C115.381 47.314 114.597 47.1119 114.086 46.7065C113.575 46.3011 113.32 45.6608 113.32 44.7867V42.3251H114.675V44.514C114.675 44.8086 114.712 45.0643 114.782 45.2797C114.854 45.4964 114.971 45.6742 115.133 45.8142C115.295 45.9542 115.509 46.0589 115.773 46.127C116.039 46.1964 116.366 46.2305 116.755 46.2305C116.857 46.2305 116.981 46.2208 117.126 46.2013C117.271 46.1818 117.419 46.1575 117.573 46.127C117.725 46.0978 117.873 46.065 118.018 46.0284C118.163 45.9907 118.287 45.953 118.391 45.914V42.3251H119.753V50.2175H118.391V47.034Z" fill="#303030"/>
<path d="M128.48 47.6975C128.426 48.0408 128.308 48.378 128.127 48.7067C127.944 49.0366 127.705 49.3312 127.411 49.5917C127.116 49.8522 126.769 50.0616 126.369 50.2211C125.968 50.3806 125.525 50.4609 125.038 50.4609C124.507 50.4609 124.018 50.3733 123.567 50.1992C123.118 50.0251 122.73 49.7622 122.404 49.4104C122.076 49.0597 121.821 48.619 121.633 48.0883C121.447 47.5575 121.353 46.9329 121.353 46.2159C121.353 45.735 121.407 45.298 121.511 44.9072C121.617 44.5177 121.76 44.1682 121.939 43.8615C122.119 43.5547 122.326 43.2893 122.562 43.0653C122.798 42.8413 123.046 42.6575 123.309 42.5126C123.572 42.3677 123.841 42.2594 124.117 42.1888C124.392 42.117 124.657 42.0816 124.913 42.0816C125.453 42.0816 125.947 42.162 126.394 42.3251C126.841 42.487 127.226 42.7342 127.547 43.0653C127.87 43.3964 128.119 43.8128 128.299 44.3107C128.478 44.8098 128.569 45.3954 128.569 46.0686V46.7467H122.798C122.803 47.1302 122.857 47.4771 122.96 47.7888C123.063 48.1017 123.211 48.3682 123.402 48.5886C123.593 48.8102 123.826 48.9806 124.098 49.1011C124.371 49.2217 124.679 49.2813 125.023 49.2813C125.372 49.2813 125.667 49.2326 125.907 49.134C126.148 49.0366 126.35 48.9112 126.512 48.759C126.674 48.6057 126.806 48.4364 126.907 48.2502C127.007 48.0627 127.092 47.8789 127.16 47.6975H128.48ZM127.205 45.6632C127.195 45.2797 127.137 44.9389 127.032 44.6394C126.926 44.3387 126.779 44.0879 126.589 43.8834C126.4 43.6801 126.173 43.5242 125.907 43.4195C125.642 43.3136 125.347 43.2601 125.023 43.2601C124.714 43.2601 124.429 43.3209 124.169 43.4415C123.908 43.562 123.679 43.7288 123.483 43.9418C123.286 44.1561 123.129 44.4093 123.011 44.7015C122.893 44.9936 122.822 45.3138 122.798 45.6632H127.205Z" fill="#303030"/>
<path d="M136.359 47.4394C136.338 47.6305 136.3 47.8399 136.244 48.0663C136.187 48.2916 136.105 48.5168 135.997 48.7395C135.889 48.9635 135.75 49.1791 135.581 49.3848C135.411 49.5917 135.204 49.7743 134.961 49.9338C134.719 50.0933 134.431 50.2211 134.103 50.3173C133.774 50.4135 133.398 50.4609 132.975 50.4609C132.744 50.4609 132.501 50.433 132.246 50.3757C131.991 50.3197 131.741 50.2248 131.498 50.0921C131.254 49.9594 131.024 49.7889 130.805 49.5808C130.586 49.3714 130.395 49.1121 130.23 48.8028C130.066 48.4936 129.934 48.1333 129.836 47.723C129.737 47.3128 129.688 46.8429 129.688 46.3121C129.688 45.6583 129.782 45.0703 129.968 44.5468C130.155 44.0234 130.404 43.5803 130.716 43.2163C131.029 42.8535 131.392 42.5722 131.807 42.3762C132.222 42.1802 132.659 42.0816 133.115 42.0816C133.528 42.0816 133.893 42.1255 134.21 42.2143C134.526 42.3032 134.803 42.4201 135.039 42.5674C135.275 42.7159 135.474 42.8863 135.635 43.0799C135.797 43.2747 135.929 43.478 136.03 43.6922C136.131 43.9053 136.206 44.1232 136.259 44.3435C136.31 44.5651 136.343 44.7769 136.359 44.9778H135.09C135.022 44.4422 134.836 44.0221 134.534 43.7178C134.232 43.4135 133.808 43.2601 133.263 43.2601C132.889 43.2601 132.564 43.3368 132.286 43.4889C132.009 43.6411 131.778 43.8542 131.594 44.1269C131.409 44.3996 131.271 44.7282 131.181 45.1142C131.09 45.5001 131.045 45.9237 131.045 46.3851C131.045 46.9062 131.093 47.3542 131.192 47.7303C131.291 48.1065 131.431 48.4157 131.612 48.6592C131.793 48.9027 132.016 49.0816 132.279 49.1973C132.542 49.3129 132.84 49.3702 133.174 49.3702C133.41 49.3702 133.634 49.3276 133.845 49.2411C134.056 49.1547 134.245 49.0305 134.412 48.865C134.58 48.7006 134.722 48.4985 134.839 48.2575C134.957 48.0164 135.041 47.7437 135.09 47.4394H136.359Z" fill="#303030"/>
<path d="M137.699 42.3251H139.055V46.1417L143.042 42.3251H144.818L141.111 45.8105L144.878 50.2175H143.131L140.05 46.6359L139.055 47.4686V50.2175H137.699V42.3251Z" fill="#303030"/>
<path d="M145.953 44.6905C145.968 44.2084 146.059 43.8018 146.225 43.4707C146.393 43.1396 146.619 42.8705 146.903 42.6635C147.188 42.4578 147.527 42.3093 147.918 42.218C148.308 42.1267 148.734 42.0816 149.196 42.0816C149.579 42.0816 149.952 42.1206 150.312 42.1997C150.674 42.2777 150.994 42.4042 151.274 42.5795C151.554 42.7536 151.779 42.9788 151.948 43.2564C152.118 43.534 152.203 43.8724 152.203 44.2705V48.8613C152.203 48.9891 152.237 49.0987 152.306 49.19C152.374 49.2801 152.485 49.3264 152.637 49.3264C152.707 49.3264 152.777 49.3202 152.852 49.3081C152.925 49.2947 153.001 49.2813 153.079 49.2667V50.2029C152.967 50.2321 152.855 50.2589 152.745 50.2844C152.634 50.3088 152.502 50.3209 152.35 50.3209C152.114 50.3209 151.912 50.3015 151.743 50.2625C151.572 50.2223 151.43 50.1578 151.315 50.0665C151.2 49.9752 151.11 49.8583 151.046 49.7135C150.982 49.5674 150.94 49.3897 150.921 49.179C150.753 49.3604 150.576 49.5284 150.39 49.683C150.203 49.8377 149.994 49.9728 149.763 50.0884C149.533 50.2041 149.275 50.2954 148.99 50.3611C148.704 50.4281 148.383 50.4609 148.025 50.4609C147.719 50.4609 147.423 50.4122 147.136 50.3136C146.849 50.215 146.591 50.0702 146.362 49.879C146.134 49.6867 145.95 49.4505 145.813 49.1681C145.675 48.8844 145.607 48.5569 145.607 48.1832C145.607 47.7754 145.675 47.4236 145.813 47.1265C145.95 46.8283 146.13 46.5811 146.351 46.3815C146.572 46.183 146.826 46.0297 147.11 45.9213C147.395 45.813 147.685 45.7423 147.98 45.707L150.198 45.4343C150.41 45.41 150.575 45.3284 150.696 45.1884C150.816 45.0484 150.876 44.8232 150.876 44.514C150.876 44.0368 150.72 43.6947 150.408 43.4853C150.097 43.2771 149.647 43.1724 149.063 43.1724C148.464 43.1724 148.016 43.299 147.722 43.5523C147.427 43.8043 147.26 44.1841 147.221 44.6905H145.953ZM150.847 46.2013C150.738 46.2792 150.604 46.3449 150.445 46.3961C150.285 46.4484 150.11 46.491 149.918 46.5251C149.727 46.5604 149.522 46.5909 149.307 46.6176C149.09 46.6444 148.874 46.6724 148.658 46.7029C148.412 46.737 148.187 46.7857 147.98 46.8502C147.774 46.9135 147.594 46.9975 147.442 47.0997C147.289 47.2032 147.171 47.3274 147.088 47.4723C147.004 47.6171 146.963 47.7875 146.963 47.9848C146.963 48.2112 146.998 48.4097 147.07 48.5813C147.141 48.7542 147.239 48.899 147.365 49.0159C147.49 49.134 147.641 49.2229 147.818 49.2813C147.994 49.3409 148.189 49.3702 148.4 49.3702C148.532 49.3702 148.684 49.3543 148.857 49.3227C149.029 49.2898 149.206 49.2423 149.387 49.179C149.57 49.1145 149.747 49.033 149.921 48.9319C150.097 48.8309 150.252 48.7091 150.39 48.5667C150.528 48.4242 150.638 48.2623 150.721 48.0809C150.805 47.8983 150.847 47.695 150.847 47.4686V46.2013Z" fill="#303030"/>
<path d="M160.782 50.2175H159.418V47.0924H157.671C157.357 47.0924 157.083 47.0985 156.85 47.1119C156.616 47.1241 156.419 47.1691 156.257 47.2483C156.094 47.3262 155.967 47.4491 155.877 47.6159C155.786 47.7827 155.728 48.0213 155.703 48.3305L155.644 49.1791C155.639 49.2034 155.635 49.2521 155.63 49.3264C155.625 49.3994 155.615 49.4871 155.6 49.5881C155.586 49.6879 155.565 49.7951 155.541 49.9083C155.517 50.0215 155.487 50.125 155.453 50.2175H153.957C153.991 50.1737 154.024 50.1286 154.056 50.0811C154.089 50.0349 154.12 49.9691 154.152 49.8863C154.183 49.8023 154.214 49.694 154.241 49.5613C154.267 49.4286 154.293 49.2594 154.317 49.0537L154.406 48.0432C154.435 47.7778 154.472 47.5624 154.513 47.3956C154.555 47.2276 154.614 47.0888 154.69 46.9792C154.767 46.8684 154.865 46.7771 154.988 46.7065C155.111 46.6347 155.266 46.5629 155.453 46.4886C154.608 46.1842 154.185 45.5597 154.185 44.6163C154.185 44.3813 154.215 44.1634 154.274 43.9649C154.333 43.7653 154.41 43.5876 154.506 43.4305C154.601 43.2735 154.709 43.1347 154.83 43.0142C154.95 42.8937 155.072 42.7938 155.195 42.7159C155.347 42.6173 155.514 42.5418 155.695 42.4907C155.878 42.4383 156.061 42.4006 156.245 42.3763C156.43 42.3519 156.61 42.3373 156.786 42.3324C156.964 42.3275 157.126 42.3251 157.273 42.3251H160.782V50.2175ZM159.418 43.5182H157.355C157.177 43.5182 157.025 43.5194 156.897 43.5218C156.769 43.5243 156.657 43.5303 156.562 43.5413C156.466 43.551 156.378 43.5681 156.3 43.5924C156.221 43.6168 156.141 43.6509 156.057 43.6959C155.885 43.7933 155.754 43.9382 155.663 44.1305C155.572 44.3217 155.526 44.5262 155.526 44.7416C155.526 44.9535 155.558 45.1312 155.622 45.2761C155.686 45.421 155.771 45.5402 155.877 45.634C155.983 45.7265 156.1 45.7996 156.23 45.8507C156.36 45.903 156.493 45.9396 156.628 45.9615C156.763 45.9834 156.895 45.9968 157.022 46.0016C157.15 46.0077 157.261 46.0102 157.355 46.0102H159.418V43.5182Z" fill="#303030"/>
<path d="M166.98 42.3251H168.336V46.1417L172.323 42.3251H174.099L170.392 45.8105L174.158 50.2175H172.411L169.331 46.6359L168.336 47.4686V50.2175H166.98V42.3251Z" fill="#303030"/>
<path d="M180.761 46.2597C180.761 45.8227 180.712 45.421 180.614 45.0557C180.515 44.6893 180.368 44.374 180.172 44.1086C179.974 43.8432 179.733 43.635 179.446 43.4853C179.158 43.3356 178.825 43.2601 178.447 43.2601C178.068 43.2601 177.737 43.3356 177.452 43.4853C177.167 43.635 176.926 43.8432 176.73 44.1086C176.533 44.374 176.386 44.6893 176.288 45.0557C176.19 45.421 176.14 45.8227 176.14 46.2597C176.14 46.7029 176.19 47.1095 176.288 47.4796C176.386 47.8509 176.533 48.1686 176.73 48.434C176.926 48.6994 177.167 48.9076 177.452 49.0573C177.737 49.207 178.068 49.2813 178.447 49.2813C178.825 49.2813 179.158 49.207 179.446 49.0573C179.733 48.9076 179.974 48.6994 180.172 48.434C180.368 48.1686 180.515 47.8509 180.614 47.4796C180.712 47.1095 180.761 46.7029 180.761 46.2597ZM182.117 46.2597C182.117 46.9086 182.033 47.4917 181.866 48.0103C181.699 48.5289 181.458 48.9696 181.144 49.3336C180.83 49.6964 180.446 49.9752 179.991 50.17C179.536 50.3636 179.021 50.4609 178.447 50.4609C177.872 50.4609 177.358 50.3636 176.907 50.17C176.455 49.9752 176.071 49.6964 175.757 49.3336C175.442 48.9696 175.202 48.5289 175.034 48.0103C174.867 47.4917 174.785 46.9086 174.785 46.2597C174.785 45.6218 174.867 45.0436 175.034 44.5286C175.202 44.0124 175.442 43.5729 175.757 43.2089C176.071 42.8449 176.455 42.5662 176.907 42.3726C177.358 42.179 177.872 42.0816 178.447 42.0816C179.021 42.0816 179.536 42.179 179.991 42.3726C180.446 42.5662 180.83 42.8449 181.144 43.2089C181.458 43.5729 181.699 44.0124 181.866 44.5286C182.033 45.0436 182.117 45.6218 182.117 46.2597Z" fill="#303030"/>
<path d="M183.642 42.3251H185.618L187.703 48.7956H187.733L189.847 42.3251H191.705V50.2175H190.438V43.8651H190.407L188.322 50.2175H187.025L184.94 43.8651H184.909V50.2175H183.642V42.3251Z" fill="#303030"/>
<path d="M198.736 43.5036H195.051V50.2175H193.694V42.3251H200.099V50.2175H198.736V43.5036Z" fill="#303030"/>
<path d="M202.073 44.6905C202.089 44.2084 202.179 43.8018 202.346 43.4707C202.514 43.1396 202.739 42.8705 203.024 42.6635C203.309 42.4578 203.647 42.3093 204.038 42.218C204.429 42.1267 204.855 42.0816 205.316 42.0816C205.7 42.0816 206.072 42.1206 206.433 42.1997C206.794 42.2777 207.114 42.4042 207.394 42.5795C207.674 42.7536 207.9 42.9788 208.069 43.2564C208.238 43.534 208.323 43.8724 208.323 44.2705V48.8613C208.323 48.9891 208.357 49.0987 208.427 49.19C208.495 49.2801 208.606 49.3264 208.758 49.3264C208.827 49.3264 208.898 49.3202 208.972 49.3081C209.045 49.2947 209.122 49.2813 209.2 49.2667V50.2029C209.088 50.2321 208.976 50.2589 208.865 50.2844C208.754 50.3088 208.623 50.3209 208.471 50.3209C208.234 50.3209 208.032 50.3015 207.863 50.2625C207.693 50.2223 207.55 50.1578 207.436 50.0665C207.32 49.9752 207.23 49.8583 207.167 49.7135C207.102 49.5674 207.061 49.3897 207.041 49.179C206.873 49.3604 206.697 49.5284 206.511 49.683C206.323 49.8377 206.115 49.9728 205.884 50.0884C205.654 50.2041 205.396 50.2954 205.111 50.3611C204.826 50.4281 204.503 50.4609 204.145 50.4609C203.84 50.4609 203.544 50.4122 203.257 50.3136C202.969 50.215 202.711 50.0702 202.482 49.879C202.255 49.6867 202.071 49.4505 201.933 49.1681C201.796 48.8844 201.728 48.5569 201.728 48.1832C201.728 47.7754 201.796 47.4236 201.933 47.1265C202.071 46.8283 202.251 46.5811 202.471 46.3815C202.693 46.183 202.946 46.0297 203.231 45.9213C203.516 45.813 203.806 45.7423 204.1 45.707L206.318 45.4343C206.53 45.41 206.696 45.3284 206.816 45.1884C206.937 45.0484 206.996 44.8232 206.996 44.514C206.996 44.0368 206.841 43.6947 206.529 43.4853C206.217 43.2771 205.768 43.1724 205.184 43.1724C204.585 43.1724 204.137 43.299 203.842 43.5523C203.548 43.8043 203.381 44.1841 203.342 44.6905H202.073ZM206.967 46.2013C206.859 46.2792 206.725 46.3449 206.565 46.3961C206.406 46.4484 206.231 46.491 206.038 46.5251C205.847 46.5604 205.643 46.5909 205.427 46.6176C205.21 46.6444 204.995 46.6724 204.778 46.7029C204.532 46.737 204.307 46.7857 204.1 46.8502C203.895 46.9135 203.714 46.9975 203.562 47.0997C203.41 47.2032 203.292 47.3274 203.209 47.4723C203.125 47.6171 203.084 47.7875 203.084 47.9848C203.084 48.2112 203.119 48.4097 203.191 48.5813C203.261 48.7542 203.36 48.899 203.485 49.0159C203.611 49.134 203.762 49.2229 203.938 49.2813C204.115 49.3409 204.31 49.3702 204.52 49.3702C204.653 49.3702 204.805 49.3543 204.978 49.3227C205.15 49.2898 205.326 49.2423 205.508 49.179C205.69 49.1145 205.868 49.033 206.042 48.9319C206.217 48.8309 206.373 48.7091 206.511 48.5667C206.648 48.4242 206.759 48.2623 206.842 48.0809C206.926 47.8983 206.967 47.695 206.967 47.4686V46.2013Z" fill="#303030"/>
<path d="M210.483 42.3251H211.84V45.5086H215.523V42.3251H216.887V50.2175H215.523V46.6871H211.84V50.2175H210.483V42.3251Z" fill="#303030"/>
<path d="M218.877 42.3251H220.234V48.3756H220.263L224.139 42.3251H225.695V50.2175H224.331V44.167H224.301L220.432 50.2175H218.877V42.3251Z" fill="#303030"/>
<path d="M234.103 50.2175H232.74V47.0924H230.993C230.678 47.0924 230.405 47.0985 230.171 47.1119C229.938 47.1241 229.74 47.1691 229.578 47.2483C229.416 47.3262 229.289 47.4491 229.198 47.6159C229.107 47.7827 229.05 48.0213 229.025 48.3305L228.966 49.1791C228.961 49.2034 228.956 49.2521 228.951 49.3264C228.946 49.3994 228.936 49.4871 228.922 49.5881C228.907 49.6879 228.888 49.7951 228.863 49.9083C228.839 50.0215 228.809 50.125 228.774 50.2175H227.278C227.312 50.1737 227.346 50.1286 227.378 50.0811C227.41 50.0349 227.441 49.9691 227.474 49.8863C227.506 49.8023 227.535 49.694 227.562 49.5613C227.589 49.4286 227.616 49.2594 227.64 49.0537L227.728 48.0432C227.758 47.7778 227.793 47.5624 227.835 47.3956C227.877 47.2276 227.936 47.0888 228.011 46.9792C228.088 46.8684 228.188 46.7771 228.311 46.7065C228.434 46.6347 228.588 46.5629 228.774 46.4886C227.93 46.1842 227.507 45.5597 227.507 44.6163C227.507 44.3813 227.536 44.1634 227.595 43.9649C227.655 43.7653 227.731 43.5876 227.827 43.4305C227.924 43.2735 228.032 43.1347 228.152 43.0142C228.272 42.8937 228.393 42.7938 228.516 42.7159C228.669 42.6173 228.835 42.5418 229.018 42.4907C229.199 42.4383 229.382 42.4006 229.567 42.3763C229.751 42.3519 229.931 42.3373 230.109 42.3324C230.285 42.3275 230.447 42.3251 230.594 42.3251H234.103V50.2175ZM232.74 43.5182H230.676C230.5 43.5182 230.347 43.5194 230.22 43.5218C230.092 43.5243 229.98 43.5303 229.884 43.5413C229.787 43.551 229.701 43.5681 229.622 43.5924C229.544 43.6168 229.462 43.6509 229.378 43.6959C229.207 43.7933 229.075 43.9382 228.985 44.1305C228.894 44.3217 228.849 44.5262 228.849 44.7416C228.849 44.9535 228.88 45.1312 228.944 45.2761C229.008 45.421 229.092 45.5402 229.198 45.634C229.304 45.7265 229.422 45.7996 229.552 45.8507C229.683 45.903 229.815 45.9396 229.951 45.9615C230.086 45.9834 230.217 45.9968 230.344 46.0016C230.472 46.0077 230.582 46.0102 230.676 46.0102H232.74V43.5182Z" fill="#303030"/>
<mask id="mask0_2005_841" style="mask-type:luminance" maskUnits="userSpaceOnUse" x="0" y="0" width="276" height="57">
<path d="M0 0H276V57H0V0Z" fill="white"/>
</mask>
<g mask="url(#mask0_2005_841)">
<path d="M42.963 2.09653H7.39446C3.86037 2.09653 0.994629 4.96229 0.994629 8.49638V44.0649C0.994629 47.599 3.86037 50.4647 7.39446 50.4647H21.3007L24.5341 55.5559L27.8977 50.4647H42.963C46.497 50.4647 49.3628 47.599 49.3628 44.0649V8.49638C49.3628 4.96229 46.497 2.09653 42.963 2.09653Z" fill="#06B3A5"/>
<path d="M24.4565 35.5528H25.8943V20.0287H24.4565V35.5528Z" fill="white"/>
<path d="M20.5523 27.3305H19.1146C19.1146 28.2862 18.3366 29.0641 17.381 29.0641H13.3295C12.3739 29.0641 11.5959 28.2862 11.5959 27.3305H10.1582C10.1582 29.0787 11.5801 30.5018 13.3295 30.5018H17.381C19.1304 30.5018 20.5523 29.0787 20.5523 27.3305Z" fill="white"/>
<path d="M38.7632 27.3305C38.7632 28.2862 37.9853 29.0641 37.0297 29.0641H32.977C32.0213 29.0641 31.2434 28.2862 31.2434 27.3305H29.8057C29.8057 29.0787 31.2288 30.5018 32.977 30.5018H37.0297C38.7778 30.5018 40.201 29.0787 40.201 27.3305H38.7632Z" fill="white"/>
<path d="M16.1492 14.4932H22.3238C23.5606 14.4932 24.5674 15.4999 24.5674 16.7368H26.0052C26.0052 15.4999 27.0119 14.4932 28.2488 14.4932H34.2019V22.9321H35.6384V14.6088L34.0862 13.0554H28.2488C27.0302 13.0554 25.9565 13.658 25.2857 14.5723C24.6161 13.658 23.5424 13.0554 22.3238 13.0554H16.3756L14.7114 14.7196V22.9321H16.1492V14.4932Z" fill="white"/>
<path d="M32.6545 39.2171H18.2674C17.0098 39.2171 15.8424 38.6498 15.1448 37.7015L13.9858 38.5524C14.9537 39.8684 16.5545 40.6549 18.2674 40.6549H32.6545C34.3686 40.6549 35.9695 39.8684 36.9373 38.5524L35.7784 37.7015C35.0808 38.6498 33.9133 39.2171 32.6545 39.2171Z" fill="white"/>
</g>
</svg>
